<svg fill="#737373" xmlns="http://www.w3.org/2000/svg"  viewBox="0 0 24 24" width="50px" height="50px"><path d="M1.993,12	c0-5.533,4.48-10.013,10.001-10.013c5.521,0,10.001,4.48,10.001,10.013c0,5.52-4.48,10-10.001,10C6.473,22,1.993,17.52,1.993,12z M8.997,16v-6h-2v6H8.997z M12.997,12.693c0-0.973,0.875-1.12,1.085-1.12c0.211,0,0.915,0.214,0.915,1.12V16h2v-3.307	c0-1.893-0.949-2.693-2-2.693c-1.051,0-1.717,0.347-2,0.84V10h-2v6h2C12.997,16,12.997,12.84,12.997,12.693z M8.997,8	c0-0.573-0.384-1-0.964-1C7.386,7,6.997,7.427,6.997,8c0,0.56,0.389,1,0.969,1C8.613,9,8.997,8.56,8.997,8z"/></svg>